<svg width="36" height="36" viewBox="0 0 36 36" fill="none" xmlns="http://www.w3.org/2000/svg">
<path d="M16.875 2.25C7.55522 2.25 0 9.80522 0 19.125C0 28.4448 7.55522 36 16.875 36C26.1949 36 33.75 28.4449 33.75 19.125C33.75 9.80515 26.1949 2.25 16.875 2.25ZM16.875 32.625C9.41913 32.625 3.375 26.5809 3.375 19.125C3.375 11.6691 9.41913 5.625 16.875 5.625C24.3309 5.625 30.375 11.6691 30.375 19.125C30.375 26.5809 24.3309 32.625 16.875 32.625ZM18 18V13.5H22.5V11.25H18V9H15.75V11.25H11.25V20.25H15.75V24.75H11.25V27H15.75V29.25H18V27H22.5001L22.5 18H18ZM15.75 18H13.5V13.5H15.75V18ZM20.2501 24.75H18V20.25H20.2501V24.75Z" fill="#F3C653"/>
</svg>
