<svg width="32" height="32" viewBox="0 0 32 32" fill="none" xmlns="http://www.w3.org/2000/svg">
<g clip-path="url(#clip0_256_128)">
<path d="M30.0251 0.0179688C28.1101 0.222969 24.8831 2.60497 20.1051 7.33797C17.2101 10.206 13.6831 14.028 10.9281 17.28L10.4711 17.82L10.0941 17.623C9.42211 17.271 8.19711 16.66 7.61911 16.391C4.90911 15.123 3.16211 14.583 1.93911 14.633C1.51411 14.651 1.27911 14.705 0.951113 14.865C0.756113 14.963 0.679113 15.017 0.513113 15.185C0.166113 15.533 0.0161133 15.91 0.0161133 16.425C0.0161133 16.88 0.0341133 16.905 0.826113 17.643C1.82611 18.575 3.03611 19.828 3.85111 20.775C5.82611 23.07 7.82611 26.055 10.1761 30.2C10.5911 30.932 10.6741 31.052 10.8191 31.152C11.1741 31.397 11.6141 31.372 11.9421 31.092C12.0751 30.977 12.1551 30.822 12.3991 30.204C13.5771 27.254 15.1091 23.997 16.6191 21.237C19.1771 16.565 22.0271 12.472 25.3141 8.76197C26.5771 7.33697 27.7171 6.16697 29.7771 4.18497C31.1851 2.83197 31.5891 2.39297 31.8021 1.99497C32.1541 1.33497 32.0191 0.699969 31.4451 0.311969C31.1001 0.0789687 30.5401 -0.0380312 30.0271 0.0169688L30.0251 0.0179688Z" fill="#C8FF82"/>
</g>
<defs>
<clipPath id="clip0_256_128">
<rect width="32" height="32" fill="white"/>
</clipPath>
</defs>
</svg>
