<svg width="26" height="33" viewBox="0 0 26 33" fill="none" xmlns="http://www.w3.org/2000/svg">
<path d="M6.375 6.5625C6.375 2.93809 9.22921 0 12.75 0C16.2708 0 19.125 2.93809 19.125 6.5625C19.125 10.1868 16.2708 13.125 12.75 13.125C9.22921 13.125 6.375 10.1868 6.375 6.5625ZM21.2526 15.3125H20.0764L13.4655 29.1294L15.9375 16.4062L12.75 13.125L9.5625 16.4062L12.0345 29.1294L5.42366 15.3125H4.24748C-2.5332e-07 15.3125 0 18.2515 0 21.875V32.8125H25.5V21.875C25.5 18.2515 25.5 15.3125 21.2526 15.3125Z" fill="#F3C653"/>
</svg>
