<svg width="31" height="30" viewBox="0 0 31 30" fill="none" xmlns="http://www.w3.org/2000/svg">
<path d="M21.3125 18.75C19.375 20.625 19.375 22.5 17.4375 22.5C15.5 22.5 13.5625 20.625 11.625 18.75C9.6875 16.875 7.75 15 7.75 13.125C7.75 11.25 9.6875 11.25 11.625 9.375C13.5625 7.5 7.75 1.875 5.8125 1.875C3.875 1.875 0 7.5 0 7.5C0 11.25 3.98096 18.8525 7.75 22.5C11.519 26.1475 19.375 30 23.25 30C23.25 30 29.0625 26.25 29.0625 24.375C29.0625 22.5 23.25 16.875 21.3125 18.75Z" fill="#F3C653"/>
</svg>
